<?xml version="1.0" standalone="no"?>
<!DOCTYPE svg PUBLIC "-//W3C//DTD SVG 20010904//EN"
 "http://www.w3.org/TR/2001/REC-SVG-20010904/DTD/svg10.dtd">
<svg version="1.0" xmlns="http://www.w3.org/2000/svg"
 width="1399.000000pt" height="1399.000000pt" viewBox="0 0 1399.000000 1399.000000"
 preserveAspectRatio="xMidYMid meet">
<metadata>
Created by potrace 1.14, written by Peter Selinger 2001-2017
</metadata>
<g transform="translate(0.000000,1399.000000) scale(0.100000,-0.100000)"
fill="#000000" stroke="none">
<path d="M0 6995 l0 -6995 6995 0 6995 0 0 6995 0 6995 -6995 0 -6995 0 0
-6995z m5135 2538 c114 -27 202 -79 295 -173 94 -93 134 -160 171 -280 34
-110 32 -273 -4 -385 -66 -200 -214 -352 -413 -422 -71 -25 -92 -28 -214 -27
-120 0 -144 3 -216 27 -196 65 -341 211 -410 412 -24 70 -28 96 -28 205 -1
112 2 134 28 213 109 332 446 515 791 430z m-3206 -1033 c359 -32 665 -160
921 -385 266 -235 445 -549 516 -905 13 -68 15 -120 11 -260 -6 -194 -24 -303
-81 -471 l-33 -99 1438 0 c999 0 1454 3 1491 11 29 6 91 29 137 51 137 65 250
199 303 358 20 59 22 90 26 357 l4 292 476 427 477 427 3 -709 c3 -756 0 -834
-44 -1003 -142 -546 -558 -971 -1094 -1117 -221 -61 -88 -57 -2115 -61 l-1860
-4 -425 -478 -425 -478 -280 -7 c-154 -4 -447 -6 -652 -4 l-372 3 464 524
c256 289 465 527 465 530 0 4 -45 26 -100 50 -154 66 -323 183 -454 315 -128
128 -212 242 -289 394 -128 249 -192 559 -168 808 49 500 291 908 701 1181
206 138 470 229 734 252 50 5 96 9 101 10 6 0 61 -4 124 -9z m7811 -18 c283
-61 488 -160 703 -341 247 -207 451 -540 521 -851 25 -109 38 -337 26 -462
-37 -392 -179 -698 -444 -963 -182 -182 -352 -288 -585 -365 -140 -47 -230
-66 -376 -80 -145 -13 -2465 -14 -2465 0 0 5 172 222 383 482 l384 473 864 5
864 5 55 22 c120 49 211 123 284 233 81 120 89 147 89 295 1 110 -3 140 -22
195 -52 149 -183 304 -306 362 -113 52 -269 71 -396 48 -30 -5 -95 -30 -145
-55 -125 -61 -194 -129 -259 -257 l-50 -98 -491 0 -491 0 48 173 c103 365 197
538 413 753 173 172 343 280 576 367 195 73 291 87 550 82 129 -2 200 -8 270
-23z m-5380 -198 c115 -27 205 -79 301 -174 70 -69 94 -101 128 -170 175 -357
9 -774 -363 -912 -106 -40 -254 -49 -370 -23 -99 22 -216 81 -289 145 -297
266 -297 723 0 990 64 56 187 122 273 144 73 19 239 20 320 0z m1535 1 c263
-67 456 -284 495 -556 46 -319 -169 -638 -486 -719 -94 -24 -232 -26 -324 -4
-152 35 -313 152 -399 289 -93 147 -124 339 -83 504 35 134 74 204 177 307 98
99 184 150 301 178 80 19 245 20 319 1z m7943 -419 c-29 -35 -685 -815 -1457
-1734 l-1403 -1669 -615 -8 c-338 -4 -616 -5 -617 -4 -2 2 651 786 1451 1742
l1454 1737 620 0 621 0 -54 -64z"/>
<path d="M1717 7530 c-216 -34 -415 -217 -473 -434 -18 -68 -18 -218 1 -290
20 -75 74 -178 125 -238 51 -59 157 -130 246 -165 62 -24 82 -27 194 -27 110
0 133 3 192 26 150 57 252 145 321 275 48 92 67 168 67 273 0 162 -56 297
-175 416 -131 133 -313 193 -498 164z"/>
</g>
</svg>
